{
    "asset" : {
        "copyright" : "h0rnb1ll",
        "generator" : "Khronos glTF Blender I/O v1.8.19",
        "version" : "2.0"
    },
    "scene" : 0,
    "scenes" : [
        {
            "extras" : {
                "msfs_extAsoboProperties" : {},
                "msfs_exporter_properties" : {
                    "enabled" : 0
                }
            },
            "name" : "Scene",
            "nodes" : [
                2
            ]
        }
    ],
    "nodes" : [
        {
            "mesh" : 0,
            "name" : "HUD.NEW.GLASS",
            "scale" : [
                0.958594024181366,
                0.9585944414138794,
                0.9585944414138794
            ],
            "translation" : [
                0,
                -1.9680061340332031,
                0
            ]
        },
        {
            "mesh" : 1,
            "name" : "HUD_Screen",
            "scale" : [
                0.958594024181366,
                0.9585944414138794,
                0.9585944414138794
            ],
            "translation" : [
                0,
                -0.3396873474121094,
                0
            ]
        },
        {
            "children" : [
                0,
                1
            ],
            "mesh" : 2,
            "name" : "HUD.NEW",
            "rotation" : [
                -0.6405275464057922,
                0,
                0,
                0.7679351568222046
            ],
            "scale" : [
                0.08025728911161423,
                0.08206365257501602,
                0.08206365257501602
            ],
            "translation" : [
                -0.005034198518842459,
                1.1360280513763428,
                4.573416233062744
            ]
        }
    ],
    "materials" : [
        {
            "alphaMode" : "BLEND",
            "extras" : {
                "msfs_material_type" : 0,
                "msfs_base_color_factor" : [
                    1.0,
                    1.0,
                    1.0,
                    1.0
                ],
                "msfs_emissive_factor" : [
                    0.0,
                    0.0,
                    0.0
                ],
                "msfs_alpha_mode" : 0,
                "msfs_draw_order" : 0,
                "msfs_double_sided" : 1,
                "msfs_dont_cast_shadows" : 0,
                "msfs_day_night_cycle" : 0,
                "msfs_use_pearl_effect" : 0,
                "msfs_pearl_shift" : 0.0,
                "msfs_pearl_range" : 0.0,
                "msfs_pearl_brightness" : 0.0,
                "msfs_collision_material" : 0,
                "msfs_road_material" : 0,
                "msfs_uv_offset_u" : 0.0,
                "msfs_uv_offset_v" : 0.0,
                "msfs_uv_tiling_u" : 1.0,
                "msfs_uv_tiling_v" : 1.0,
                "msfs_uv_rotation" : 0.0,
                "msfs_uv_clamp_u" : 0,
                "msfs_uv_clamp_v" : 0,
                "msfs_roughness_factor" : 1.0,
                "msfs_metallic_factor" : 1.0,
                "msfs_normal_scale" : 1.0,
                "msfs_alpha_cutoff" : 0.5,
                "msfs_detail_uv_scale" : 1.0,
                "msfs_detail_uv_offset_u" : 0.0,
                "msfs_detail_uv_offset_v" : 0.0,
                "msfs_detail_normal_scale" : 1.0,
                "msfs_blend_threshold" : 0.10000000149011612,
                "msfs_decal_color_blend_factor" : 1.0,
                "msfs_decal_metal_blend_factor" : 1.0,
                "msfs_decal_normal_blend_factor" : 1.0,
                "msfs_decal_roughness_blend_factor" : 1.0,
                "msfs_decal_occlusion_blend_factor" : 1.0,
                "msfs_decal_emissive_blend_factor" : 1.0,
                "msfs_rain_drop_scale" : 1.0,
                "msfs_wiper_1_state" : 0.0,
                "msfs_wiper_2_state" : 0.0,
                "msfs_glass_reflection_factor" : 1.0,
                "msfs_glass_deformation_factor" : 0.0,
                "msfs_parallax_scale" : 0.0,
                "msfs_parallax_room_size_x" : 0.5,
                "msfs_parallax_room_size_y" : 0.5,
                "msfs_parallax_room_number" : 1.0,
                "msfs_parallax_corridor" : 0,
                "msfs_sss_color" : [
                    1.0,
                    1.0,
                    1.0,
                    1.0
                ],
                "msfs_fresnel_factor" : 1.0,
                "msfs_fresnel_opacity_bias" : 0.0,
                "msfs_show_colors" : 1,
                "msfs_show_emissive_color" : 1,
                "msfs_show_alpha_mode" : 0,
                "msfs_show_render_options" : 1,
                "msfs_show_day_night_cycle" : 0,
                "msfs_show_pearl" : 1,
                "msfs_show_gameplay_options" : 1,
                "msfs_show_uv_options" : 1,
                "msfs_show_material_options" : 1,
                "msfs_show_material_detail_options" : 1,
                "msfs_show_blend_threshold" : 1,
                "msfs_show_decal_blend_factors" : 0,
                "msfs_show_windshield_options" : 0,
                "msfs_show_glass_options" : 1,
                "msfs_show_parallax_options" : 0,
                "msfs_show_sss_color" : 0,
                "msfs_show_fresnel_options" : 0,
                "msfs_show_base_color_texture" : 1,
                "msfs_show_comp_texture" : 1,
                "msfs_show_normal_texture" : 1,
                "msfs_show_emissive_texture" : 1,
                "msfs_show_detail_color_texture" : 1,
                "msfs_show_detail_comp_texture" : 1,
                "msfs_show_detail_normal_texture" : 1,
                "msfs_show_blend_mask_texture" : 1,
                "msfs_show_wetness_ao_texture" : 0,
                "msfs_show_dirt_texture" : 0,
                "msfs_show_height_map_texture" : 0,
                "msfs_material_mode" : 4,
                "msfs_albedo_texture" : {},
                "msfs_metallic_texture" : {},
                "msfs_detail_albedo_texture" : {},
                "msfs_detail_metallic_texture" : {},
                "msfs_blend_mode" : 2,
                "msfs_show_tint" : 1,
                "msfs_show_glass_parameters" : 1,
                "msfs_show_decal_parameters" : 0,
                "msfs_show_fresnel_parameters" : 0,
                "msfs_show_parallax_parameters" : 0,
                "msfs_show_geo_decal_parameters" : 0,
                "msfs_show_albedo" : 1,
                "msfs_show_metallic" : 1,
                "msfs_show_normal" : 1,
                "msfs_show_emissive" : 1,
                "msfs_show_detail_albedo" : 1,
                "msfs_show_detail_metallic" : 1,
                "msfs_show_detail_normal" : 1,
                "msfs_show_blend_mask" : 1,
                "msfs_show_anisotropic_direction" : 0,
                "msfs_show_clearcoat" : 0,
                "msfs_show_behind_glass" : 0,
                "msfs_show_blend_mode" : 1,
                "msfs_show_draworder" : 1,
                "msfs_show_no_cast_shadow" : 1,
                "msfs_show_double_sided" : 1,
                "msfs_show_responsive_aa" : 0,
                "msfs_show_collision_material" : 1,
                "msfs_show_road_material" : 1,
                "msfs_show_ao_use_uv2" : 1,
                "msfs_show_uv_clamp" : 1,
                "msfs_show_alpha_cutoff" : 0,
                "msfs_color_albedo_mix" : [
                    0.5520114898681641,
                    0.5520114302635193,
                    0.5520114898681641
                ],
                "msfs_color_alpha_mix" : 0.009999999776482582
            },
            "name" : "$HUD_GLASS",
            "pbrMetallicRoughness" : {
                "baseColorFactor" : [
                    0.5520114898681641,
                    0.5520114302635193,
                    0.5520114898681641,
                    0.009999999776482582
                ],
                "metallicFactor" : 0,
                "roughnessFactor" : 0
            }
        },
        {
            "doubleSided" : true,
            "name" : "$HUD_FACE",
            "pbrMetallicRoughness" : {
                "baseColorFactor" : [
                    0.800000011920929,
                    0.800000011920929,
                    0.800000011920929,
                    1
                ],
                "metallicFactor" : 0,
                "roughnessFactor" : 0.4000000059604645
            }
        },
        {
            "doubleSided" : true,
            "name" : "panel",
            "pbrMetallicRoughness" : {
                "baseColorFactor" : [
                    0.005181517452001572,
                    0.00518151605501771,
                    0.005181516520678997,
                    1
                ],
                "metallicFactor" : 0,
                "roughnessFactor" : 0.5
            }
        }
    ],
    "meshes" : [
        {
            "name" : "Circle.001",
            "primitives" : [
                {
                    "attributes" : {
                        "POSITION" : 0,
                        "NORMAL" : 1,
                        "TEXCOORD_0" : 2
                    },
                    "indices" : 3,
                    "material" : 0
                }
            ]
        },
        {
            "name" : "HUD_Screen.001",
            "primitives" : [
                {
                    "attributes" : {
                        "POSITION" : 4,
                        "NORMAL" : 5,
                        "TEXCOORD_0" : 6
                    },
                    "indices" : 7,
                    "material" : 1
                }
            ]
        },
        {
            "name" : "HUD.NEW",
            "primitives" : [
                {
                    "attributes" : {
                        "POSITION" : 8,
                        "NORMAL" : 9,
                        "TEXCOORD_0" : 10
                    },
                    "indices" : 11,
                    "material" : 2
                }
            ]
        }
    ],
    "accessors" : [
        {
            "bufferView" : 0,
            "componentType" : 5126,
            "count" : 5313,
            "max" : [
                1.2728458642959595,
                1.6791236400604248,
                0.9807855486869812
            ],
            "min" : [
                -1.272845983505249,
                0.6292316317558289,
                -0.9807857275009155
            ],
            "type" : "VEC3"
        },
        {
            "bufferView" : 1,
            "componentType" : 5126,
            "count" : 5313,
            "type" : "VEC3"
        },
        {
            "bufferView" : 2,
            "componentType" : 5126,
            "count" : 5313,
            "type" : "VEC2"
        },
        {
            "bufferView" : 3,
            "componentType" : 5123,
            "count" : 31488,
            "type" : "SCALAR"
        },
        {
            "bufferView" : 4,
            "componentType" : 5126,
            "count" : 32,
            "max" : [
                1.278786540031433,
                2.384185791015625e-07,
                0.9807859063148499
            ],
            "min" : [
                -1.2787864208221436,
                2.384185791015625e-07,
                -0.9807853102684021
            ],
            "type" : "VEC3"
        },
        {
            "bufferView" : 5,
            "componentType" : 5126,
            "count" : 32,
            "type" : "VEC3"
        },
        {
            "bufferView" : 6,
            "componentType" : 5126,
            "count" : 32,
            "type" : "VEC2"
        },
        {
            "bufferView" : 7,
            "componentType" : 5123,
            "count" : 90,
            "type" : "SCALAR"
        },
        {
            "bufferView" : 8,
            "componentType" : 5126,
            "count" : 29160,
            "max" : [
                1.3247536420822144,
                0.5570282936096191,
                0.9795876145362854
            ],
            "min" : [
                -1.324755072593689,
                -1.0986766815185547,
                -0.9807737469673157
            ],
            "type" : "VEC3"
        },
        {
            "bufferView" : 9,
            "componentType" : 5126,
            "count" : 29160,
            "type" : "VEC3"
        },
        {
            "bufferView" : 10,
            "componentType" : 5126,
            "count" : 29160,
            "type" : "VEC2"
        },
        {
            "bufferView" : 11,
            "componentType" : 5123,
            "count" : 174960,
            "type" : "SCALAR"
        }
    ],
    "bufferViews" : [
        {
            "buffer" : 0,
            "byteLength" : 63756,
            "byteOffset" : 0
        },
        {
            "buffer" : 0,
            "byteLength" : 63756,
            "byteOffset" : 63756
        },
        {
            "buffer" : 0,
            "byteLength" : 42504,
            "byteOffset" : 127512
        },
        {
            "buffer" : 0,
            "byteLength" : 62976,
            "byteOffset" : 170016
        },
        {
            "buffer" : 0,
            "byteLength" : 384,
            "byteOffset" : 232992
        },
        {
            "buffer" : 0,
            "byteLength" : 384,
            "byteOffset" : 233376
        },
        {
            "buffer" : 0,
            "byteLength" : 256,
            "byteOffset" : 233760
        },
        {
            "buffer" : 0,
            "byteLength" : 180,
            "byteOffset" : 234016
        },
        {
            "buffer" : 0,
            "byteLength" : 349920,
            "byteOffset" : 234196
        },
        {
            "buffer" : 0,
            "byteLength" : 349920,
            "byteOffset" : 584116
        },
        {
            "buffer" : 0,
            "byteLength" : 233280,
            "byteOffset" : 934036
        },
        {
            "buffer" : 0,
            "byteLength" : 349920,
            "byteOffset" : 1167316
        }
    ],
    "buffers" : [
        {
            "byteLength" : 1517236,
            "uri" : "data:application/octet-stream;base64,"
        }
    ]
}
