{
    "asset" : {
        "extensions" : {
            "ASOBO_normal_map_convention" : {
                "tangent_space_convention" : "DirectX"
            }
        },
        "generator" : "Extended Khronos glTF Blender I/O v1.0.0",
        "version" : "2.0"
    },
    "extensionsUsed" : [
        "ASOBO_normal_map_convention",
        "ASOBO_material_glass"
    ],
    "scene" : 0,
    "scenes" : [
        {
            "name" : "Scene",
            "nodes" : [
                0,
                1,
                2,
                3,
                4,
                5,
                6
            ]
        }
    ],
    "nodes" : [
        {
            "mesh" : 0,
            "name" : "j20",
            "rotation" : [
                0,
                1,
                0,
                -1.6292068494294654e-07
            ],
            "scale" : [
                0.05976896360516548,
                0.05976896360516548,
                0.05976896360516548
            ],
            "translation" : [
                0.00197811983525753,
                0.035947348922491074,
                -2.1946122646331787
            ]
        },
        {
            "mesh" : 1,
            "name" : "canopy.ring",
            "rotation" : [
                0,
                1,
                0,
                -1.6292068494294654e-07
            ],
            "scale" : [
                0.05976896360516548,
                0.05976896360516548,
                0.05976896360516548
            ],
            "translation" : [
                0.00197811983525753,
                0.035947348922491074,
                -2.1946122646331787
            ]
        },
        {
            "mesh" : 2,
            "name" : "canopy",
            "rotation" : [
                0,
                1,
                0,
                -1.6292068494294654e-07
            ],
            "scale" : [
                0.05976896360516548,
                0.05976896360516548,
                0.05976896360516548
            ],
            "translation" : [
                0.00197811983525753,
                0.035947348922491074,
                -2.1946122646331787
            ]
        },
        {
            "mesh" : 3,
            "name" : "nacelle.left",
            "rotation" : [
                0,
                1,
                0,
                -1.6292068494294654e-07
            ],
            "scale" : [
                0.05976896360516548,
                0.05976896360516548,
                0.05976896360516548
            ],
            "translation" : [
                0.00197811983525753,
                0.035947348922491074,
                -2.1946122646331787
            ]
        },
        {
            "mesh" : 4,
            "name" : "nacelle.right",
            "rotation" : [
                0,
                1,
                0,
                -1.6292068494294654e-07
            ],
            "scale" : [
                0.05976896360516548,
                0.05976896360516548,
                0.05976896360516548
            ],
            "translation" : [
                0.00197811983525753,
                0.035947348922491074,
                -2.1946122646331787
            ]
        },
        {
            "mesh" : 5,
            "name" : "front.wing.left",
            "rotation" : [
                0,
                1,
                0,
                -1.6292068494294654e-07
            ],
            "scale" : [
                0.05976896360516548,
                0.05976896360516548,
                0.05976896360516548
            ],
            "translation" : [
                0.00197811983525753,
                0.035947348922491074,
                -2.1946122646331787
            ]
        },
        {
            "mesh" : 6,
            "name" : "front.wing.right",
            "rotation" : [
                0,
                1,
                0,
                -1.6292068494294654e-07
            ],
            "scale" : [
                0.05976896360516548,
                0.05976896360516548,
                0.05976896360516548
            ],
            "translation" : [
                0.00197811983525753,
                0.035947348922491074,
                -2.1946122646331787
            ]
        }
    ],
    "materials" : [
        {
            "doubleSided" : true,
            "emissiveFactor" : [
                0,
                0,
                0
            ],
            "name" : "body",
            "pbrMetallicRoughness" : {
                "baseColorTexture" : {
                    "index" : 0,
                    "texCoord" : 0
                },
                "metallicFactor" : 0,
                "roughnessFactor" : 0.6000000238418579
            }
        },
        {
            "alphaMode" : "BLEND",
            "emissiveFactor" : [
                0,
                0,
                0
            ],
            "extensions" : {
                "ASOBO_material_glass" : {
                    "glassReflectionMaskFactor" : 0.4000000059604645,
                    "glassDeformationFactor" : 0
                }
            },
            "name" : "canopy",
            "pbrMetallicRoughness" : {
                "baseColorFactor" : [
                    0,
                    0,
                    0,
                    0.20000000298023224
                ],
                "metallicFactor" : 0,
                "roughnessFactor" : 0.5
            }
        },
        {
            "doubleSided" : true,
            "emissiveFactor" : [
                0,
                0,
                0
            ],
            "name" : "nacelle",
            "pbrMetallicRoughness" : {
                "baseColorFactor" : [
                    0.20324896275997162,
                    0.20324896275997162,
                    0.20324896275997162,
                    1
                ],
                "metallicFactor" : 1,
                "roughnessFactor" : 0.5
            }
        }
    ],
    "meshes" : [
        {
            "name" : "j20",
            "primitives" : [
                {
                    "attributes" : {
                        "POSITION" : 0,
                        "NORMAL" : 1,
                        "TEXCOORD_0" : 2
                    },
                    "indices" : 3,
                    "material" : 0
                }
            ]
        },
        {
            "name" : "j20.001",
            "primitives" : [
                {
                    "attributes" : {
                        "POSITION" : 4,
                        "NORMAL" : 5,
                        "TEXCOORD_0" : 6
                    },
                    "indices" : 7,
                    "material" : 0
                }
            ]
        },
        {
            "name" : "j20.002",
            "primitives" : [
                {
                    "attributes" : {
                        "POSITION" : 8,
                        "NORMAL" : 9,
                        "TEXCOORD_0" : 10
                    },
                    "indices" : 11,
                    "material" : 1
                }
            ]
        },
        {
            "name" : "j20.003",
            "primitives" : [
                {
                    "attributes" : {
                        "POSITION" : 12,
                        "NORMAL" : 13,
                        "TEXCOORD_0" : 14
                    },
                    "indices" : 15,
                    "material" : 2
                }
            ]
        },
        {
            "name" : "j20.004",
            "primitives" : [
                {
                    "attributes" : {
                        "POSITION" : 16,
                        "NORMAL" : 17,
                        "TEXCOORD_0" : 18
                    },
                    "indices" : 19,
                    "material" : 2
                }
            ]
        },
        {
            "name" : "j20.005",
            "primitives" : [
                {
                    "attributes" : {
                        "POSITION" : 20,
                        "NORMAL" : 21,
                        "TEXCOORD_0" : 22
                    },
                    "indices" : 23,
                    "material" : 0
                }
            ]
        },
        {
            "name" : "j20.006",
            "primitives" : [
                {
                    "attributes" : {
                        "POSITION" : 24,
                        "NORMAL" : 25,
                        "TEXCOORD_0" : 26
                    },
                    "indices" : 27,
                    "material" : 0
                }
            ]
        }
    ],
    "textures" : [
        {
            "source" : 0
        }
    ],
    "images" : [
        {
            "mimeType" : "image/png",
            "name" : "j20",
            "uri" : "j20.png"
        }
    ],
    "accessors" : [
        {
            "bufferView" : 0,
            "componentType" : 5126,
            "count" : 2101,
            "max" : [
                69.60487365722656,
                28.178760528564453,
                96.73777770996094
            ],
            "min" : [
                -70.14328002929688,
                -10.660303115844727,
                -142.97813415527344
            ],
            "type" : "VEC3"
        },
        {
            "bufferView" : 1,
            "componentType" : 5126,
            "count" : 2101,
            "type" : "VEC3"
        },
        {
            "bufferView" : 2,
            "componentType" : 5126,
            "count" : 2101,
            "type" : "VEC2"
        },
        {
            "bufferView" : 3,
            "componentType" : 5123,
            "count" : 5889,
            "type" : "SCALAR"
        },
        {
            "bufferView" : 4,
            "componentType" : 5126,
            "count" : 28,
            "max" : [
                5.77882194519043,
                12.824713706970215,
                -73.567626953125
            ],
            "min" : [
                -6.317038059234619,
                7.253156661987305,
                -108.76759338378906
            ],
            "type" : "VEC3"
        },
        {
            "bufferView" : 5,
            "componentType" : 5126,
            "count" : 28,
            "type" : "VEC3"
        },
        {
            "bufferView" : 6,
            "componentType" : 5126,
            "count" : 28,
            "type" : "VEC2"
        },
        {
            "bufferView" : 7,
            "componentType" : 5123,
            "count" : 75,
            "type" : "SCALAR"
        },
        {
            "bufferView" : 8,
            "componentType" : 5126,
            "count" : 40,
            "max" : [
                5.3361496925354,
                15.523409843444824,
                -75.07427978515625
            ],
            "min" : [
                -5.874365329742432,
                8.393531799316406,
                -108.76759338378906
            ],
            "type" : "VEC3"
        },
        {
            "bufferView" : 9,
            "componentType" : 5126,
            "count" : 40,
            "type" : "VEC3"
        },
        {
            "bufferView" : 10,
            "componentType" : 5126,
            "count" : 40,
            "type" : "VEC2"
        },
        {
            "bufferView" : 11,
            "componentType" : 5123,
            "count" : 156,
            "type" : "SCALAR"
        },
        {
            "bufferView" : 12,
            "componentType" : 5126,
            "count" : 1442,
            "max" : [
                -2.0308616161346436,
                6.243106842041016,
                85.30137634277344
            ],
            "min" : [
                -15.744583129882812,
                -7.682952880859375,
                75.16047668457031
            ],
            "type" : "VEC3"
        },
        {
            "bufferView" : 13,
            "componentType" : 5126,
            "count" : 1442,
            "type" : "VEC3"
        },
        {
            "bufferView" : 14,
            "componentType" : 5126,
            "count" : 1442,
            "type" : "VEC2"
        },
        {
            "bufferView" : 15,
            "componentType" : 5123,
            "count" : 2397,
            "type" : "SCALAR"
        },
        {
            "bufferView" : 16,
            "componentType" : 5126,
            "count" : 1445,
            "max" : [
                15.206236839294434,
                6.243106842041016,
                85.30137634277344
            ],
            "min" : [
                1.4925163984298706,
                -7.682952880859375,
                75.16047668457031
            ],
            "type" : "VEC3"
        },
        {
            "bufferView" : 17,
            "componentType" : 5126,
            "count" : 1445,
            "type" : "VEC3"
        },
        {
            "bufferView" : 18,
            "componentType" : 5126,
            "count" : 1445,
            "type" : "VEC2"
        },
        {
            "bufferView" : 19,
            "componentType" : 5123,
            "count" : 2400,
            "type" : "SCALAR"
        },
        {
            "bufferView" : 20,
            "componentType" : 5126,
            "count" : 28,
            "max" : [
                -19.088132858276367,
                5.462947845458984,
                -34.32522964477539
            ],
            "min" : [
                -42.57539749145508,
                3.839885711669922,
                -67.21180725097656
            ],
            "type" : "VEC3"
        },
        {
            "bufferView" : 21,
            "componentType" : 5126,
            "count" : 28,
            "type" : "VEC3"
        },
        {
            "bufferView" : 22,
            "componentType" : 5126,
            "count" : 28,
            "type" : "VEC2"
        },
        {
            "bufferView" : 23,
            "componentType" : 5123,
            "count" : 60,
            "type" : "SCALAR"
        },
        {
            "bufferView" : 24,
            "componentType" : 5126,
            "count" : 28,
            "max" : [
                42.070804595947266,
                5.463080406188965,
                -34.324703216552734
            ],
            "min" : [
                18.583547592163086,
                3.839885711669922,
                -67.21180725097656
            ],
            "type" : "VEC3"
        },
        {
            "bufferView" : 25,
            "componentType" : 5126,
            "count" : 28,
            "type" : "VEC3"
        },
        {
            "bufferView" : 26,
            "componentType" : 5126,
            "count" : 28,
            "type" : "VEC2"
        },
        {
            "bufferView" : 27,
            "componentType" : 5123,
            "count" : 60,
            "type" : "SCALAR"
        }
    ],
    "bufferViews" : [
        {
            "buffer" : 0,
            "byteLength" : 25212,
            "byteOffset" : 0
        },
        {
            "buffer" : 0,
            "byteLength" : 25212,
            "byteOffset" : 25212
        },
        {
            "buffer" : 0,
            "byteLength" : 16808,
            "byteOffset" : 50424
        },
        {
            "buffer" : 0,
            "byteLength" : 11778,
            "byteOffset" : 67232
        },
        {
            "buffer" : 0,
            "byteLength" : 336,
            "byteOffset" : 79012
        },
        {
            "buffer" : 0,
            "byteLength" : 336,
            "byteOffset" : 79348
        },
        {
            "buffer" : 0,
            "byteLength" : 224,
            "byteOffset" : 79684
        },
        {
            "buffer" : 0,
            "byteLength" : 150,
            "byteOffset" : 79908
        },
        {
            "buffer" : 0,
            "byteLength" : 480,
            "byteOffset" : 80060
        },
        {
            "buffer" : 0,
            "byteLength" : 480,
            "byteOffset" : 80540
        },
        {
            "buffer" : 0,
            "byteLength" : 320,
            "byteOffset" : 81020
        },
        {
            "buffer" : 0,
            "byteLength" : 312,
            "byteOffset" : 81340
        },
        {
            "buffer" : 0,
            "byteLength" : 17304,
            "byteOffset" : 81652
        },
        {
            "buffer" : 0,
            "byteLength" : 17304,
            "byteOffset" : 98956
        },
        {
            "buffer" : 0,
            "byteLength" : 11536,
            "byteOffset" : 116260
        },
        {
            "buffer" : 0,
            "byteLength" : 4794,
            "byteOffset" : 127796
        },
        {
            "buffer" : 0,
            "byteLength" : 17340,
            "byteOffset" : 132592
        },
        {
            "buffer" : 0,
            "byteLength" : 17340,
            "byteOffset" : 149932
        },
        {
            "buffer" : 0,
            "byteLength" : 11560,
            "byteOffset" : 167272
        },
        {
            "buffer" : 0,
            "byteLength" : 4800,
            "byteOffset" : 178832
        },
        {
            "buffer" : 0,
            "byteLength" : 336,
            "byteOffset" : 183632
        },
        {
            "buffer" : 0,
            "byteLength" : 336,
            "byteOffset" : 183968
        },
        {
            "buffer" : 0,
            "byteLength" : 224,
            "byteOffset" : 184304
        },
        {
            "buffer" : 0,
            "byteLength" : 120,
            "byteOffset" : 184528
        },
        {
            "buffer" : 0,
            "byteLength" : 336,
            "byteOffset" : 184648
        },
        {
            "buffer" : 0,
            "byteLength" : 336,
            "byteOffset" : 184984
        },
        {
            "buffer" : 0,
            "byteLength" : 224,
            "byteOffset" : 185320
        },
        {
            "buffer" : 0,
            "byteLength" : 120,
            "byteOffset" : 185544
        }
    ],
    "buffers" : [
        {
            "byteLength" : 185664,
            "uri" : "j20.bin"
        }
    ]
}
